<svg id="Слой_1" data-name="Слой 1" xmlns="http://www.w3.org/2000/svg" viewBox="0 0 128.14 75.02"><defs><style>.cls-1,.cls-2,.cls-3{fill:#fff;}.cls-2{fill-rule:evenodd;}.cls-3{font-size:22.84px;font-family:HandelGothicBT-Regular, HandelGothic BT;}</style></defs><title>cards 4</title><polygon class="cls-1" points="29.32 3.33 48.45 3.33 64.24 49.96 29.32 3.33"/><polygon class="cls-1" points="64.24 46.15 56.59 11.89 64.24 0 71.89 12.37 64.24 46.15"/><polygon class="cls-1" points="99.39 3.33 80.26 3.33 64.48 49.96 99.39 3.33"/><path class="cls-2" d="M153.2,62.78c.84-1.91,3.05-3.88,4-5.75a2.35,2.35,0,0,1,1.8-.74c9.48,0,19,0,28.45-.06,2,0,2.36,1,1.64,2.57-1.14,2.46-3.06,4.28-5.83,4.32-9.32.12-20.07,0-29.4,0C153.76,63.13,153.62,63,153.2,62.78Z" transform="translate(-61.33 -44.64)"/><path class="cls-2" d="M145.59,74.67c1-2.21,3.12-4,4.07-5.76a2.51,2.51,0,0,1,1.88-1c8.83-.06,17.66,0,26.49,0,1.71,0,2.17.8,1.6,2.24-1,2.44-2.72,4.41-5.38,4.47C165.36,74.78,155,74.67,145.59,74.67Z" transform="translate(-61.33 -44.64)"/><path class="cls-2" d="M138.44,86c2.15-6.54,4.06-6.54,10.54-6.54s12.75,0,19.12,0c2.62,0,3.1.87,1.76,3.16-1.22,2.11-3,3.63-5.51,3.65-7.72.07-17.36,0-25.09,0A3.59,3.59,0,0,1,138.44,86Z" transform="translate(-61.33 -44.64)"/><path class="cls-2" d="M97.94,63.36c-.84-1.91-3-3.88-4-5.75a2.35,2.35,0,0,0-1.8-.74c-9.48,0-19,0-28.45-.06-2,0-2.36,1-1.64,2.57,1.14,2.46,3,4.28,5.83,4.32,9.32.12,20.07,0,29.39,0C97.38,63.71,97.51,63.58,97.94,63.36Z" transform="translate(-61.33 -44.64)"/><path class="cls-2" d="M105.55,75.25c-1-2.21-3.12-4-4.07-5.76a2.53,2.53,0,0,0-1.88-1c-8.83-.06-17.66,0-26.49,0-1.71,0-2.17.8-1.6,2.24,1,2.44,2.72,4.41,5.38,4.47C85.78,75.36,96.11,75.25,105.55,75.25Z" transform="translate(-61.33 -44.64)"/><path class="cls-2" d="M112.7,86.56C110.55,80,108.64,80,102.15,80S89.41,80,83,80c-2.62,0-3.1.87-1.77,3.16,1.23,2.11,3,3.63,5.52,3.65,7.72.07,17.36,0,25.08,0A3.48,3.48,0,0,0,112.7,86.56Z" transform="translate(-61.33 -44.64)"/><text class="cls-3" transform="translate(0.34 69.64) scale(1.01 1)">wingman.ai</text></svg>