<?xml version="1.0" encoding="utf-8"?>
<!-- Generator: Adobe Illustrator 23.0.1, SVG Export Plug-In . SVG Version: 6.00 Build 0)  -->
<svg version="1.1" id="Layer_1" xmlns="http://www.w3.org/2000/svg" xmlns:xlink="http://www.w3.org/1999/xlink" x="0px" y="0px"
	 viewBox="0 0 160.76 93.32" style="enable-background:new 0 0 160.76 93.32;" xml:space="preserve">
<style type="text/css">
	.st0{fill:#FFFFFF;}
	.st1{fill-rule:evenodd;clip-rule:evenodd;fill:#FFFFFF;}
</style>
<g>
	<g>
		<polygon class="st0" points="36.79,4.2 60.79,4.2 80.59,63 		"/>
	</g>
	<g>
		<polygon class="st0" points="80.59,58.2 70.99,15 80.59,0 90.19,15.6 		"/>
	</g>
	<g>
		<polygon class="st0" points="124.69,4.2 100.69,4.2 80.89,63 		"/>
	</g>
	<g>
		<g>
			<path class="st1" d="M115.27,22.88c1.05-2.41,3.82-4.9,5.05-7.25c0.3-0.57,1.48-0.93,2.26-0.94c11.9-0.06,23.79-0.02,35.69-0.07
				c2.57-0.01,2.96,1.26,2.06,3.23c-1.43,3.11-3.83,5.41-7.31,5.45c-11.69,0.16-25.19,0.04-36.88,0.01
				C115.96,23.32,115.8,23.16,115.27,22.88z"/>
		</g>
		<g>
			<path class="st1" d="M105.71,37.87c1.24-2.79,3.92-5.11,5.1-7.26c0.36-0.66,1.55-1.21,2.36-1.22
				c11.08-0.08,22.15-0.03,33.23-0.07c2.15-0.01,2.73,1.02,2.01,2.83c-1.21,3.08-3.41,5.57-6.76,5.64
				C130.51,38.01,117.55,37.87,105.71,37.87z"/>
		</g>
		<g>
			<path class="st1" d="M96.75,52.13c2.69-8.25,5.09-8.25,13.23-8.25c7.99,0,15.99-0.01,23.98,0.02c3.29,0.01,3.9,1.09,2.21,3.99
				c-1.54,2.65-3.75,4.57-6.92,4.6c-9.69,0.09-21.78,0.01-31.47-0.02C97.51,52.48,97.24,52.3,96.75,52.13z"/>
		</g>
	</g>
	<g>
		<g>
			<path class="st1" d="M45.93,23.61c-1.05-2.41-3.82-4.9-5.05-7.25c-0.3-0.57-1.48-0.93-2.26-0.94
				c-11.9-0.06-23.79-0.02-35.69-0.07c-2.57-0.01-2.97,1.26-2.06,3.23c1.43,3.11,3.83,5.41,7.31,5.45
				c11.69,0.16,25.19,0.04,36.88,0.01C45.24,24.05,45.4,23.89,45.93,23.61z"/>
		</g>
		<g>
			<path class="st1" d="M55.49,38.6c-1.24-2.79-3.92-5.11-5.1-7.26c-0.36-0.66-1.55-1.21-2.36-1.22
				c-11.08-0.08-22.15-0.03-33.23-0.07c-2.15-0.01-2.73,1.02-2.01,2.83c1.21,3.08,3.41,5.57,6.76,5.64
				C30.69,38.74,43.65,38.6,55.49,38.6z"/>
		</g>
		<g>
			<path class="st1" d="M64.45,52.86c-2.69-8.25-5.09-8.25-13.23-8.25c-7.99,0-15.99-0.01-23.98,0.02c-3.29,0.01-3.9,1.09-2.21,3.99
				c1.54,2.65,3.75,4.57,6.92,4.6c9.69,0.09,21.78,0.01,31.47-0.02C63.69,53.21,63.96,53.03,64.45,52.86z"/>
		</g>
	</g>
</g>
<g>
	<path class="st0" d="M12.91,77.45L9.75,87.82H5.3L0,72.64h4.2l3.35,10.62l3.3-10.62h4.26l3.38,10.62l3.35-10.62h4.12l-5.13,15.17
		h-4.61L12.91,77.45z"/>
	<path class="st0" d="M31.51,70.91h-4.21v-3.77h4.21V70.91z M31.51,87.82h-4.21V72.64h4.21V87.82z"/>
	<path class="st0" d="M34.97,72.64h7.54c2.28,0,3.9,0.43,4.88,1.29c0.97,0.86,1.46,2.28,1.46,4.27v9.62h-4.01v-9.13
		c0-1.13-0.18-1.87-0.53-2.21s-1.06-0.51-2.12-0.51h-3.22v11.84h-4.01V72.64z"/>
	<path class="st0" d="M66.49,87.27c0,2.08-0.46,3.61-1.39,4.58c-0.93,0.97-2.38,1.46-4.35,1.46h-7.86v-3.08h7.17
		c0.77,0,1.36-0.19,1.77-0.56c0.41-0.37,0.62-0.91,0.62-1.61v-0.25h-3.26c-1.69,0-2.9-0.13-3.64-0.38
		c-0.74-0.25-1.43-0.68-2.05-1.29c-0.72-0.68-1.28-1.54-1.67-2.56c-0.39-1.02-0.58-2.13-0.58-3.32c0-1.17,0.19-2.27,0.58-3.28
		c0.39-1.02,0.94-1.87,1.67-2.55c0.65-0.64,1.41-1.09,2.28-1.37c0.87-0.28,2.01-0.41,3.42-0.41h7.3V87.27z M60.37,84.68h2.08v-8.79
		h-2.08c-1,0-1.71,0.04-2.11,0.11c-0.4,0.08-0.75,0.2-1.05,0.38c-0.62,0.38-1.07,0.87-1.36,1.48c-0.29,0.61-0.43,1.41-0.43,2.4
		c0,1.62,0.36,2.76,1.08,3.42C57.22,84.35,58.51,84.68,60.37,84.68z"/>
	<path class="st0" d="M69.82,72.64h15.39c2.23,0,3.84,0.44,4.82,1.31c0.98,0.87,1.48,2.29,1.48,4.25v9.62h-4.04v-9.1
		c0-1.12-0.17-1.85-0.51-2.21c-0.34-0.36-1.03-0.53-2.08-0.53h-2.25v11.84h-4.09V75.98h-4.68v11.84h-4.04V72.64z"/>
	<path class="st0" d="M95.39,72.64h8.21c2.07,0,3.63,0.48,4.68,1.43c1.05,0.95,1.57,2.36,1.57,4.24v9.51H99.08
		c-1.51,0-2.67-0.38-3.48-1.14s-1.22-1.84-1.22-3.23c0-1.72,0.47-2.96,1.4-3.71c0.93-0.75,2.48-1.12,4.65-1.12h5.27v-0.38
		c0-0.9-0.26-1.53-0.79-1.9c-0.53-0.37-1.47-0.55-2.83-0.55h-6.69V72.64z M100.71,84.77h5.02v-3.14h-4.73
		c-0.94,0-1.58,0.13-1.94,0.38c-0.36,0.25-0.54,0.69-0.54,1.32c0,0.53,0.14,0.91,0.43,1.12C99.25,84.66,99.83,84.77,100.71,84.77z"
		/>
	<path class="st0" d="M113.36,72.64h7.54c2.28,0,3.91,0.43,4.88,1.29c0.97,0.86,1.46,2.28,1.46,4.27v9.62h-4.01v-9.13
		c0-1.13-0.18-1.87-0.53-2.21s-1.06-0.51-2.12-0.51h-3.22v11.84h-4.01V72.64z"/>
	<path class="st0" d="M130.04,84.22h3.46v3.6h-3.46V84.22z"/>
	<path class="st0" d="M136.66,72.64h8.21c2.07,0,3.63,0.48,4.68,1.43c1.05,0.95,1.57,2.36,1.57,4.24v9.51h-10.77
		c-1.51,0-2.67-0.38-3.48-1.14s-1.22-1.84-1.22-3.23c0-1.72,0.47-2.96,1.4-3.71c0.93-0.75,2.48-1.12,4.65-1.12h5.27v-0.38
		c0-0.9-0.26-1.53-0.79-1.9c-0.53-0.37-1.47-0.55-2.83-0.55h-6.69V72.64z M141.99,84.77h5.02v-3.14h-4.73
		c-0.94,0-1.58,0.13-1.94,0.38c-0.36,0.25-0.54,0.69-0.54,1.32c0,0.53,0.14,0.91,0.43,1.12C140.52,84.66,141.11,84.77,141.99,84.77z
		"/>
	<path class="st0" d="M158.84,70.91h-4.21v-3.77h4.21V70.91z M158.84,87.82h-4.21V72.64h4.21V87.82z"/>
</g>
</svg>
